<?xml version="1.0" encoding="UTF-8"?>
<svg version="1.1" xmlns="http://www.w3.org/2000/svg" width="346" height="99">
<path d="M0 0 C2.85848196 1.31971036 5.74441001 2.55735807 8.6484375 3.7734375 C9.46658936 4.12124268 10.28474121 4.46904785 11.12768555 4.82739258 C12.75032869 5.51522594 14.37807103 6.19116951 16.01098633 6.85424805 C16.75372803 7.17176025 17.49646973 7.48927246 18.26171875 7.81640625 C19.26090332 8.23043701 19.26090332 8.23043701 20.28027344 8.65283203 C21.83984375 9.74609375 21.83984375 9.74609375 22.56347656 11.86669922 C22.70027832 12.79699951 22.70027832 12.79699951 22.83984375 13.74609375 C20.88334978 14.58373643 18.92458819 15.41608434 16.96484375 16.24609375 C15.32902344 16.9421875 15.32902344 16.9421875 13.66015625 17.65234375 C10.83984375 18.74609375 10.83984375 18.74609375 8.83984375 18.74609375 C8.94425781 20.19242188 8.94425781 20.19242188 9.05078125 21.66796875 C9.49277807 31.98122783 9.49277807 31.98122783 6.65234375 35.30859375 C5.01171875 36.02734375 5.01171875 36.02734375 2.83984375 36.74609375 C1.834375 37.14828125 0.82890625 37.55046875 -0.20703125 37.96484375 C-2.4729027 38.86283889 -4.7506848 39.73132726 -7.0390625 40.5703125 C-9.46406761 41.48386261 -11.72105328 42.47191336 -14.03515625 43.62109375 C-21.06903319 46.15328945 -27.72206569 42.66699927 -34.16015625 39.74609375 C-38.86478278 37.48797416 -43.51715714 35.12780511 -48.16015625 32.74609375 C-48.16015625 28.12609375 -48.16015625 23.50609375 -48.16015625 18.74609375 C-49.48015625 18.41609375 -50.80015625 18.08609375 -52.16015625 17.74609375 C-52.21432366 20.47552912 -52.2539085 23.20387939 -52.28515625 25.93359375 C-52.30191406 26.70251953 -52.31867187 27.47144531 -52.3359375 28.26367188 C-52.37282476 32.56103715 -52.15600665 35.82511206 -50.16015625 39.74609375 C-52.41015625 42.24609375 -52.41015625 42.24609375 -55.16015625 44.74609375 C-56.48015625 44.74609375 -57.80015625 44.74609375 -59.16015625 44.74609375 C-61.41015625 42.24609375 -61.41015625 42.24609375 -63.16015625 39.74609375 C-62.83869629 39.1934082 -62.51723633 38.64072266 -62.18603516 38.07128906 C-61.01455843 35.4160905 -60.84702385 33.4362984 -60.74609375 30.54296875 C-60.70742188 29.56328125 -60.66875 28.58359375 -60.62890625 27.57421875 C-60.59796875 26.5584375 -60.56703125 25.54265625 -60.53515625 24.49609375 C-60.49648438 23.46484375 -60.4578125 22.43359375 -60.41796875 21.37109375 C-60.32383951 18.82960435 -60.23820646 16.28811942 -60.16015625 13.74609375 C-61.15015625 13.41609375 -62.14015625 13.08609375 -63.16015625 12.74609375 C-63.16015625 12.08609375 -63.16015625 11.42609375 -63.16015625 10.74609375 C-59.70066944 8.33589982 -56.10617953 6.86895972 -52.16015625 5.43359375 C-46.22518342 3.2164285 -40.53784126 0.64822205 -34.83984375 -2.1171875 C-32.16015625 -3.25390625 -32.16015625 -3.25390625 -29.16015625 -3.25390625 C-28.83015625 -4.24390625 -28.50015625 -5.23390625 -28.16015625 -6.25390625 C-17.71812191 -10.2700733 -9.42811072 -4.41151972 0 0 Z " fill="#62230B" transform="translate(89.16015625,35.25390625)"/>
<path d="M0 0 C2.85848196 1.31971036 5.74441001 2.55735807 8.6484375 3.7734375 C9.46658936 4.12124268 10.28474121 4.46904785 11.12768555 4.82739258 C12.75032869 5.51522594 14.37807103 6.19116951 16.01098633 6.85424805 C16.75372803 7.17176025 17.49646973 7.48927246 18.26171875 7.81640625 C19.26090332 8.23043701 19.26090332 8.23043701 20.28027344 8.65283203 C21.83984375 9.74609375 21.83984375 9.74609375 22.56347656 11.86669922 C22.70027832 12.79699951 22.70027832 12.79699951 22.83984375 13.74609375 C20.88334978 14.58373643 18.92458819 15.41608434 16.96484375 16.24609375 C15.32902344 16.9421875 15.32902344 16.9421875 13.66015625 17.65234375 C10.83984375 18.74609375 10.83984375 18.74609375 8.83984375 18.74609375 C8.94425781 20.19242188 8.94425781 20.19242188 9.05078125 21.66796875 C9.49277807 31.98122783 9.49277807 31.98122783 6.65234375 35.30859375 C5.01171875 36.02734375 5.01171875 36.02734375 2.83984375 36.74609375 C1.834375 37.14828125 0.82890625 37.55046875 -0.20703125 37.96484375 C-2.4729027 38.86283889 -4.7506848 39.73132726 -7.0390625 40.5703125 C-9.46406761 41.48386261 -11.72105328 42.47191336 -14.03515625 43.62109375 C-21.06903319 46.15328945 -27.72206569 42.66699927 -34.16015625 39.74609375 C-38.86478278 37.48797416 -43.51715714 35.12780511 -48.16015625 32.74609375 C-48.16015625 28.12609375 -48.16015625 23.50609375 -48.16015625 18.74609375 C-47.50015625 18.41609375 -46.84015625 18.08609375 -46.16015625 17.74609375 C-44.71807684 20.63025258 -45.06620738 23.16330903 -45.09765625 26.37109375 C-45.10667969 27.55960938 -45.11570312 28.748125 -45.125 29.97265625 C-45.13660156 30.88789062 -45.14820312 31.803125 -45.16015625 32.74609375 C-44.27199219 32.86210938 -43.38382813 32.978125 -42.46875 33.09765625 C-39.27953092 33.72269801 -37.06824197 34.59914353 -34.22265625 36.12109375 C-33.3615625 36.56453125 -32.50046875 37.00796875 -31.61328125 37.46484375 C-30.14300369 38.23275942 -28.67385896 39.00285872 -27.20703125 39.77734375 C-22.76739018 41.93716914 -19.90655606 41.97361094 -15.16015625 40.74609375 C-12.095488 39.54094841 -9.13444858 38.15690852 -6.16015625 36.74609375 C-4.89207922 36.19800545 -3.62147008 35.65571369 -2.34765625 35.12109375 C-1.29578125 34.66734375 -0.24390625 34.21359375 0.83984375 33.74609375 C1.55140625 33.53339844 2.26296875 33.32070312 2.99609375 33.1015625 C5.21250378 31.79842306 5.21250378 31.79842306 5.4140625 28.5234375 C5.45144531 27.25628906 5.48882812 25.98914062 5.52734375 24.68359375 C5.7714227 17.8145148 5.7714227 17.8145148 6.83984375 16.74609375 C-0.12633355 17.77869083 -6.03404106 19.80380952 -12.3984375 22.8203125 C-15.4806629 23.85353375 -17.0866196 23.66983427 -20.16015625 22.74609375 C-20.65515625 20.76609375 -20.65515625 20.76609375 -21.16015625 18.74609375 C-16.54015625 18.74609375 -11.92015625 18.74609375 -7.16015625 18.74609375 C-7.16015625 14.12609375 -7.16015625 9.50609375 -7.16015625 4.74609375 C-11.78015625 4.74609375 -16.40015625 4.74609375 -21.16015625 4.74609375 C-20.83015625 3.09609375 -20.50015625 1.44609375 -20.16015625 -0.25390625 C-16.1447746 -1.86005891 -13.14609362 -0.48592326 -9.16015625 0.74609375 C-8.17015625 0.74609375 -7.18015625 0.74609375 -6.16015625 0.74609375 C-11.63999356 -2.34254183 -16.72709553 -4.92995861 -23.16015625 -4.25390625 C-25.96026827 -3.16117961 -28.48853194 -1.87908015 -31.09375 -0.3828125 C-33.16015625 0.74609375 -33.16015625 0.74609375 -35.16015625 0.74609375 C-35.82015625 2.06609375 -36.48015625 3.38609375 -37.16015625 4.74609375 C-36.6290625 4.54113281 -36.09796875 4.33617187 -35.55078125 4.125 C-34.844375 3.85558594 -34.13796875 3.58617187 -33.41015625 3.30859375 C-32.7140625 3.04175781 -32.01796875 2.77492188 -31.30078125 2.5 C-29.26956622 1.78462682 -27.25662715 1.23243723 -25.16015625 0.74609375 C-25.82015625 2.72609375 -26.48015625 4.70609375 -27.16015625 6.74609375 C-27.82015625 6.74609375 -28.48015625 6.74609375 -29.16015625 6.74609375 C-29.16015625 7.73609375 -29.16015625 8.72609375 -29.16015625 9.74609375 C-23.22015625 9.74609375 -17.28015625 9.74609375 -11.16015625 9.74609375 C-11.16015625 11.06609375 -11.16015625 12.38609375 -11.16015625 13.74609375 C-17.10015625 13.74609375 -23.04015625 13.74609375 -29.16015625 13.74609375 C-29.16015625 14.73609375 -29.16015625 15.72609375 -29.16015625 16.74609375 C-28.50015625 16.74609375 -27.84015625 16.74609375 -27.16015625 16.74609375 C-26.50015625 18.72609375 -25.84015625 20.70609375 -25.16015625 22.74609375 C-29.12118644 21.92171691 -32.7971877 20.37952594 -36.53515625 18.87109375 C-37.18226562 18.61457031 -37.829375 18.35804687 -38.49609375 18.09375 C-42.48772347 16.49226953 -46.33574592 14.72342045 -50.16015625 12.74609375 C-49.83015625 11.75609375 -49.50015625 10.76609375 -49.16015625 9.74609375 C-46.63225555 8.55236286 -44.0549465 7.71022679 -41.41015625 6.80859375 C-40.66765625 6.45796875 -39.92515625 6.10734375 -39.16015625 5.74609375 C-38.83015625 4.75609375 -38.50015625 3.76609375 -38.16015625 2.74609375 C-44.84723109 5.70161572 -51.50824328 8.7123241 -58.16015625 11.74609375 C-57.83015625 12.73609375 -57.50015625 13.72609375 -57.16015625 14.74609375 C-57.0787177 16.37328857 -57.05262605 18.00361094 -57.0625 19.6328125 C-57.06733398 21.03950195 -57.06733398 21.03950195 -57.07226562 22.47460938 C-57.08064453 23.45107422 -57.08902344 24.42753906 -57.09765625 25.43359375 C-57.10216797 26.42166016 -57.10667969 27.40972656 -57.11132812 28.42773438 C-57.12311322 30.86724849 -57.13956614 33.30664064 -57.16015625 35.74609375 C-58.64515625 36.24109375 -58.64515625 36.24109375 -60.16015625 36.74609375 C-59.17015625 38.39609375 -58.18015625 40.04609375 -57.16015625 41.74609375 C-54.03540998 40.11135859 -54.03540998 40.11135859 -53.47265625 37.62109375 C-53.31796875 36.69296875 -53.31796875 36.69296875 -53.16015625 35.74609375 C-52.17015625 36.40609375 -51.18015625 37.06609375 -50.16015625 37.74609375 C-51.44222984 40.60610408 -52.65166861 42.81648787 -55.16015625 44.74609375 C-56.48015625 44.74609375 -57.80015625 44.74609375 -59.16015625 44.74609375 C-61.41015625 42.24609375 -61.41015625 42.24609375 -63.16015625 39.74609375 C-62.83869629 39.1934082 -62.51723633 38.64072266 -62.18603516 38.07128906 C-61.01455843 35.4160905 -60.84702385 33.4362984 -60.74609375 30.54296875 C-60.70742188 29.56328125 -60.66875 28.58359375 -60.62890625 27.57421875 C-60.59796875 26.5584375 -60.56703125 25.54265625 -60.53515625 24.49609375 C-60.49648438 23.46484375 -60.4578125 22.43359375 -60.41796875 21.37109375 C-60.32383951 18.82960435 -60.23820646 16.28811942 -60.16015625 13.74609375 C-61.15015625 13.41609375 -62.14015625 13.08609375 -63.16015625 12.74609375 C-63.16015625 12.08609375 -63.16015625 11.42609375 -63.16015625 10.74609375 C-59.70066944 8.33589982 -56.10617953 6.86895972 -52.16015625 5.43359375 C-46.22518342 3.2164285 -40.53784126 0.64822205 -34.83984375 -2.1171875 C-32.16015625 -3.25390625 -32.16015625 -3.25390625 -29.16015625 -3.25390625 C-28.83015625 -4.24390625 -28.50015625 -5.23390625 -28.16015625 -6.25390625 C-17.71812191 -10.2700733 -9.42811072 -4.41151972 0 0 Z " fill="#65301A" transform="translate(89.16015625,35.25390625)"/>
<path d="M0 0 C1.16063604 4.25566547 0.76173392 7.6835078 0 12 C0.66 12 1.32 12 2 12 C2 10.02 2 8.04 2 6 C8.75 4.875 8.75 4.875 11 6 C11 7.98 11 9.96 11 12 C12.65 12 14.3 12 16 12 C16 15.3 16 18.6 16 22 C14.68 22.33 13.36 22.66 12 23 C11.67 24.65 11.34 26.3 11 28 C11.763125 27.896875 12.52625 27.79375 13.3125 27.6875 C16 28 16 28 17.875 30.125 C19.25780598 33.65883751 19.26962352 35.42918385 18 39 C15.15597528 40.86893053 13.32691138 41.00667166 9.9375 40.9375 C6.24671508 39.75958992 5.10138173 38.19098707 3 35 C1.45368616 31.90737233 1.60939284 28.6329109 1.37890625 25.21484375 C1.25386719 24.48394531 1.12882812 23.75304687 1 23 C0.34 22.67 -0.32 22.34 -1 22 C-1.625 18.9375 -1.625 18.9375 -2 16 C-2.0825 16.94875 -2.165 17.8975 -2.25 18.875 C-2.4975 19.90625 -2.745 20.9375 -3 22 C-3.66128906 22.23847656 -4.32257813 22.47695313 -5.00390625 22.72265625 C-5.99197266 23.35494141 -5.99197266 23.35494141 -7 24 C-7.4405759 26.64045828 -7.65062556 28.91491521 -7.6875 31.5625 C-7.91142857 38.91142857 -7.91142857 38.91142857 -9 40 C-12.5 40.125 -12.5 40.125 -16 40 C-17 39 -17 39 -17.09765625 35.18359375 C-17.09098089 33.60153318 -17.07901875 32.01948841 -17.0625 30.4375 C-17.05798828 29.63119141 -17.05347656 28.82488281 -17.04882812 27.99414062 C-17.03700518 25.99606244 -17.01906914 23.99802217 -17 22 C-17.66 22 -18.32 22 -19 22 C-20.60725635 18.78548731 -20.05748185 15.56387464 -20 12 C-19.01 12 -18.02 12 -17 12 C-16.6596875 10.14375 -16.6596875 10.14375 -16.3125 8.25 C-15.54252179 5.29579787 -14.95674893 3.94593617 -13 1.5 C-8.68113248 -0.65943376 -4.74042953 -0.33136983 0 0 Z " fill="#60240F" transform="translate(302,35)"/>
<path d="M0 0 C8.25 0.33 16.5 0.66 25 1 C25 4.63 25 8.26 25 12 C24.01 12.33 23.02 12.66 22 13 C22.11382653 14.95901454 22.24141125 16.9172338 22.375 18.875 C22.44460937 19.96554688 22.51421875 21.05609375 22.5859375 22.1796875 C22.73253491 25.13046474 22.73253491 25.13046474 25 27 C25.265625 29.09375 25.265625 29.09375 25.25 31.5 C25.25515625 32.2940625 25.2603125 33.088125 25.265625 33.90625 C25 36 25 36 23 38 C20.66162109 38.22705078 20.66162109 38.22705078 17.7734375 38.1953125 C16.2265625 38.18564453 16.2265625 38.18564453 14.6484375 38.17578125 C13.56820312 38.15902344 12.48796875 38.14226562 11.375 38.125 C10.28703125 38.11597656 9.1990625 38.10695312 8.078125 38.09765625 C5.38519848 38.07403409 2.69270745 38.04109556 0 38 C-1.19205136 25.19920236 -0.72207469 12.83688336 0 0 Z " fill="#5D220A" transform="translate(120,37)"/>
<path d="M0 0 C3.0625 0.125 3.0625 0.125 5.0625 1.125 C5.11206835 5.87555432 5.14829909 10.62595688 5.17236328 15.37670898 C5.18239896 16.99164453 5.19603051 18.606562 5.21337891 20.22143555 C5.23773465 22.54740875 5.24900747 24.87314095 5.2578125 27.19921875 C5.26813507 27.91712082 5.27845764 28.63502289 5.28909302 29.37467957 C5.28998903 33.40999868 4.85207682 36.49321174 3.0625 40.125 C1.86625 39.91875 0.67 39.7125 -0.5625 39.5 C-3.70674998 39.08002988 -4.91822293 39.11791863 -8 40.25 C-10.9375 41.125 -10.9375 41.125 -14.625 40.0625 C-18.25788265 37.93760638 -19.4195702 37.00415394 -20.9375 33.125 C-22.564337 25.97511973 -21.51996537 20.53329639 -19.0625 13.6875 C-17.54191202 11.57557224 -16.46933829 11.58694944 -13.9375 11.125 C-12.35538427 11.05951508 -10.77079919 11.03921619 -9.1875 11.0625 C-8.38828125 11.07152344 -7.5890625 11.08054687 -6.765625 11.08984375 C-6.16234375 11.10144531 -5.5590625 11.11304688 -4.9375 11.125 C-4.84662109 10.05958984 -4.84662109 10.05958984 -4.75390625 8.97265625 C-4.67011719 8.05355469 -4.58632812 7.13445313 -4.5 6.1875 C-4.41878906 5.27097656 -4.33757812 4.35445312 -4.25390625 3.41015625 C-3.77910511 -0.01896307 -3.5494334 0.15103972 0 0 Z M-11.9375 23.125 C-11.6075 24.775 -11.2775 26.425 -10.9375 28.125 C-9.2875 28.125 -7.6375 28.125 -5.9375 28.125 C-5.6075 27.465 -5.2775 26.805 -4.9375 26.125 C-5.2675 25.135 -5.5975 24.145 -5.9375 23.125 C-8.51224292 22.12832532 -9.42677292 21.86963646 -11.9375 23.125 Z " fill="#581E09" transform="translate(168.9375,34.875)"/>
<path d="M0 0 C1.09248047 0.0009668 1.09248047 0.0009668 2.20703125 0.00195312 C7.59351504 0.04675752 7.59351504 0.04675752 9.875 1.1875 C9.90386338 5.66665328 9.92175187 10.14578291 9.9375 14.625 C9.94587891 15.90439453 9.95425781 17.18378906 9.96289062 18.50195312 C9.96772461 20.32436523 9.96772461 20.32436523 9.97265625 22.18359375 C9.98051147 23.87246704 9.98051147 23.87246704 9.98852539 25.59545898 C9.875 28.1875 9.875 28.1875 8.875 29.1875 C6.38444578 29.26008446 3.90863503 29.1838636 1.41796875 29.125 C-1.07887701 29.08629286 -1.07887701 29.08629286 -3.23046875 29.75390625 C-6.59614607 30.52419529 -9.33358405 28.92970624 -12.125 27.1875 C-16.04577417 23.3672585 -16.43890262 19.9582581 -16.625 14.6875 C-16.44941688 9.18798589 -15.97311919 6.14251138 -12.125 2.1875 C-8.38149594 -0.40966789 -4.37753295 -0.07439457 0 0 Z M-5.125 11.1875 C-5.785 12.8375 -6.445 14.4875 -7.125 16.1875 C-5.99965895 17.54368499 -5.99965895 17.54368499 -3.0625 17.25 C-2.093125 17.229375 -1.12375 17.20875 -0.125 17.1875 C-0.125 15.5375 -0.125 13.8875 -0.125 12.1875 C-1.775 11.8575 -3.425 11.5275 -5.125 11.1875 Z " fill="#5B210C" transform="translate(269.125,45.8125)"/>
<path d="M0 0 C2.31 0.66 4.62 1.32 7 2 C7 7.28 7 12.56 7 18 C8.65 17.67 10.3 17.34 12 17 C12 16.01 12 15.02 12 14 C12.66 14 13.32 14 14 14 C13.7525 13.2265625 13.7525 13.2265625 13.5 12.4375 C12.84065094 9.22317332 12.81824783 6.27153915 13 3 C15 1 15 1 18.625 0.875 C20.295625 0.936875 20.295625 0.936875 22 1 C23.30033449 5.98288175 23.18381468 10.95095958 23.1875 16.0625 C23.19974609 16.96033203 23.21199219 17.85816406 23.22460938 18.78320312 C23.22750977 20.08354492 23.22750977 20.08354492 23.23046875 21.41015625 C23.23457764 22.19527588 23.23868652 22.98039551 23.24291992 23.78930664 C22.97310575 26.24475115 22.22414635 27.87222319 21 30 C18 30 15 30 12 30 C10.329375 30.061875 10.329375 30.061875 8.625 30.125 C2.76923077 29.92307692 2.76923077 29.92307692 0 28 C-4.24596376 20.97454992 -3.50714421 11.88999352 -3 4 C-2.67 3.34 -2.34 2.68 -2 2 C-1.34 2 -0.68 2 0 2 C0 1.34 0 0.68 0 0 Z " fill="#60220C" transform="translate(180,45)"/>
<path d="M0 0 C0.94746094 -0.01417969 1.89492187 -0.02835938 2.87109375 -0.04296875 C5.60751644 0.19135482 7.22678123 0.79048617 9.5625 2.1875 C10.02705163 6.18264406 9.84932179 7.77899623 7.5 11.125 C4.5625 13.1875 4.5625 13.1875 0.75 13 C-0.301875 12.731875 -1.35375 12.46375 -2.4375 12.1875 C-2.4375 13.5075 -2.4375 14.8275 -2.4375 16.1875 C-0.4575 16.1875 1.5225 16.1875 3.5625 16.1875 C3.5625 15.5275 3.5625 14.8675 3.5625 14.1875 C5.5625 14.1875 5.5625 14.1875 8.1875 16.3125 C10.5625 19.1875 10.5625 19.1875 11.1875 22.25 C10.5625 25.1875 10.5625 25.1875 8.4375 27.5 C4.6456447 29.7256542 1.94022147 30.5830204 -2.45703125 29.8515625 C-6.40387969 28.72389152 -8.85807779 27.30751785 -11 23.75 C-13.74736597 17.17334075 -12.48193864 9.98849453 -10.0625 3.5 C-7.40620728 -0.28010887 -4.31510112 0.02927477 0 0 Z " fill="#552109" transform="translate(218.4375,45.8125)"/>
<path d="M0 0 C2.475 0.495 2.475 0.495 5 1 C5 1.66 5 2.32 5 3 C5.99580078 3.29003906 5.99580078 3.29003906 7.01171875 3.5859375 C14.65696051 5.84044675 14.65696051 5.84044675 17.6875 7.25 C25.15816846 9.6729195 33.91284931 4.54357535 40.5 1.25 C43 0 43 0 45 0 C45 2.97 45 5.94 45 9 C39.57657071 11.5158113 34.13712697 13.99641051 28.625 16.3125 C27.46871094 16.80169922 27.46871094 16.80169922 26.2890625 17.30078125 C23.70099446 18.09133446 21.69210456 18.2435292 19 18 C17.61157591 17.07438394 16.22698709 16.14112139 14.8828125 15.15234375 C11.61679967 13.15343548 7.9985237 12.06916591 4.390625 10.83203125 C2 10 2 10 0 9 C0 6.03 0 3.06 0 0 Z " fill="#DB643A" transform="translate(47,56)"/>
<path d="M0 0 C0.23312509 3.34145968 0.10501612 5.71583874 -1.0625 8.875 C-3 11 -3 11 -6.6875 11.3125 C-7.780625 11.209375 -8.87375 11.10625 -10 11 C-9.97679687 11.80824219 -9.95359375 12.61648437 -9.9296875 13.44921875 C-9.90261719 15.05216797 -9.90261719 15.05216797 -9.875 16.6875 C-9.85179687 17.74324219 -9.82859375 18.79898438 -9.8046875 19.88671875 C-10.00141271 23.02251859 -10.66942346 25.17645373 -12 28 C-14.875 28.125 -14.875 28.125 -18 28 C-20 26 -20 26 -20.24291992 23.40209961 C-20.23881104 22.32968018 -20.23470215 21.25726074 -20.23046875 20.15234375 C-20.22853516 18.99025391 -20.22660156 17.82816406 -20.22460938 16.63085938 C-20.21236328 15.41205078 -20.20011719 14.19324219 -20.1875 12.9375 C-20.18685547 11.71482422 -20.18621094 10.49214844 -20.18554688 9.23242188 C-20.14011056 0.14011056 -20.14011056 0.14011056 -19 -1 C-16.94531306 -1.29100716 -14.87988216 -1.50762607 -12.8125 -1.6875 C-11.68457031 -1.79449219 -10.55664062 -1.90148438 -9.39453125 -2.01171875 C-5.83400074 -1.99942693 -3.29149871 -1.3036133 0 0 Z " fill="#571D08" transform="translate(252,47)"/>
<path d="M0 0 C0.66 0.33 1.32 0.66 2 1 C1.34 4.3 0.68 7.6 0 11 C0.99 11 1.98 11 3 11 C3 10.34 3 9.68 3 9 C3.66 9 4.32 9 5 9 C4.9071875 7.824375 4.9071875 7.824375 4.8125 6.625 C4.874375 5.75875 4.93625 4.8925 5 4 C8.4352048 1.70986347 9.985331 1.82157027 14 2 C14.33 2.99 14.66 3.98 15 5 C15.66 5 16.32 5 17 5 C16.67 9.29 16.34 13.58 16 18 C18.64 18.33 21.28 18.66 24 19 C23.67 20.65 23.34 22.3 23 24 C22.32453125 23.98839844 21.6490625 23.97679688 20.953125 23.96484375 C20.06109375 23.95582031 19.1690625 23.94679688 18.25 23.9375 C17.36828125 23.92589844 16.4865625 23.91429688 15.578125 23.90234375 C13.05116706 23.90155655 13.05116706 23.90155655 10.890625 24.5703125 C7.52691155 25.33479283 4.78919374 23.7408193 2 22 C-2.00856399 18.0942197 -2.27333541 14.68876267 -2.375 9.3125 C-2.30751174 3.46126761 -2.30751174 3.46126761 0 0 Z M9 6 C8.34 7.65 7.68 9.3 7 11 C8.12534105 12.35618499 8.12534105 12.35618499 11.0625 12.0625 C12.031875 12.041875 13.00125 12.02125 14 12 C14 10.35 14 8.7 14 7 C12.35 6.67 10.7 6.34 9 6 Z " fill="#652A11" transform="translate(255,51)"/>
<path d="M0 0 C0.99 0.33 1.98 0.66 3 1 C2.34 2.65 1.68 4.3 1 6 C0.34 6 -0.32 6 -1 6 C-1 6.99 -1 7.98 -1 9 C4.94 9 10.88 9 17 9 C17 10.32 17 11.64 17 13 C11.06 13 5.12 13 -1 13 C-1 13.99 -1 14.98 -1 16 C-0.34 16 0.32 16 1 16 C1.66 17.98 2.32 19.96 3 22 C-0.96103019 21.17562316 -4.63703145 19.63343219 -8.375 18.125 C-9.34566406 17.74021484 -9.34566406 17.74021484 -10.3359375 17.34765625 C-14.32756722 15.74617578 -18.17558967 13.9773267 -22 12 C-21.67 11.01 -21.34 10.02 -21 9 C-18.41456302 7.86665776 -15.91505863 6.90086489 -13.25 6 C-7.52163357 4.04254968 -7.52163357 4.04254968 -2.171875 1.25 C-1.45515625 0.8375 -0.7384375 0.425 0 0 Z " fill="#E57751" transform="translate(61,36)"/>
<path d="M0 0 C1.258125 -0.04125 2.51625 -0.0825 3.8125 -0.125 C4.52019531 -0.14820313 5.22789062 -0.17140625 5.95703125 -0.1953125 C8 0 8 0 11 2 C11 2.99 11 3.98 11 5 C13.97 5.495 13.97 5.495 17 6 C17.05449838 7.72880982 17.09301688 9.45812712 17.125 11.1875 C17.14820313 12.15042969 17.17140625 13.11335938 17.1953125 14.10546875 C16.9913544 17.12812778 16.26874632 19.26769985 15 22 C13.205625 21.690625 13.205625 21.690625 11.375 21.375 C8.23075002 20.95502988 7.01927707 20.99291863 3.9375 22.125 C1 23 1 23 -2.6875 21.9375 C-6.21012353 19.87709756 -7.48482026 18.74338524 -9 15 C-9.1875 12.1875 -9.1875 12.1875 -9 10 C-8.34 10 -7.68 10 -7 10 C-6.34 11.65 -5.68 13.3 -5 15 C-2.03 15.33 0.94 15.66 4 16 C4 15.34 4 14.68 4 14 C4.66 14 5.32 14 6 14 C6 13.01 6 12.02 6 11 C5.34 10.67 4.68 10.34 4 10 C4.66 9.34 5.32 8.68 6 8 C6 7.01 6 6.02 6 5 C3.36 5 0.72 5 -2 5 C-2 4.01 -2 3.02 -2 2 C-1.34 2 -0.68 2 0 2 C0 1.34 0 0.68 0 0 Z " fill="#5E2109" transform="translate(157,53)"/>
<path d="M0 0 C0.33 1.32 0.66 2.64 1 4 C0.01 4.33 -0.98 4.66 -2 5 C-2 5.99 -2 6.98 -2 8 C-3.98 8 -5.96 8 -8 8 C-8.33 9.32 -8.66 10.64 -9 12 C-7.68 12.33 -6.36 12.66 -5 13 C-5 14.65 -5 16.3 -5 18 C-6.65 18 -8.3 18 -10 18 C-10 22.95 -10 27.9 -10 33 C-12.475 33.495 -12.475 33.495 -15 34 C-15 28.72 -15 23.44 -15 18 C-16.65 18.33 -18.3 18.66 -20 19 C-20 16.69 -20 14.38 -20 12 C-19.01 12 -18.02 12 -17 12 C-16.6596875 10.14375 -16.6596875 10.14375 -16.3125 8.25 C-15.54252179 5.29579787 -14.95674893 3.94593617 -13 1.5 C-8.68113248 -0.65943376 -4.74042953 -0.33136983 0 0 Z " fill="#581E07" transform="translate(302,35)"/>
<path d="M0 0 C2.85375411 1.2632209 5.73504687 2.4554077 8.6171875 3.65234375 C9.66777344 4.08933594 10.71835938 4.52632812 11.80078125 4.9765625 C12.58582031 5.30269531 13.37085937 5.62882812 14.1796875 5.96484375 C13.8496875 6.62484375 13.5196875 7.28484375 13.1796875 7.96484375 C8.82709428 7.0321452 5.14277852 6.06061846 1.2421875 3.90234375 C-3.04326415 1.69696512 -6.96410444 0.45450333 -11.8203125 0.96484375 C-14.62042452 2.05757039 -17.14868819 3.33966985 -19.75390625 4.8359375 C-21.8203125 5.96484375 -21.8203125 5.96484375 -23.8203125 5.96484375 C-24.4803125 7.28484375 -25.1403125 8.60484375 -25.8203125 9.96484375 C-25.1603125 10.29484375 -24.5003125 10.62484375 -23.8203125 10.96484375 C-25.1403125 11.29484375 -26.4603125 11.62484375 -27.8203125 11.96484375 C-27.4903125 10.64484375 -27.1603125 9.32484375 -26.8203125 7.96484375 C-33.50738734 10.92036572 -40.16839953 13.9310741 -46.8203125 16.96484375 C-46.4903125 17.95484375 -46.1603125 18.94484375 -45.8203125 19.96484375 C-45.73887395 21.59203857 -45.7127823 23.22236094 -45.72265625 24.8515625 C-45.72749023 26.25825195 -45.72749023 26.25825195 -45.73242188 27.69335938 C-45.74080078 28.66982422 -45.74917969 29.64628906 -45.7578125 30.65234375 C-45.76232422 31.64041016 -45.76683594 32.62847656 -45.77148438 33.64648438 C-45.78326947 36.08599849 -45.79972239 38.52539064 -45.8203125 40.96484375 C-47.3053125 41.45984375 -47.3053125 41.45984375 -48.8203125 41.96484375 C-47.8303125 43.61484375 -46.8403125 45.26484375 -45.8203125 46.96484375 C-42.69556623 45.33010859 -42.69556623 45.33010859 -42.1328125 42.83984375 C-41.978125 41.91171875 -41.978125 41.91171875 -41.8203125 40.96484375 C-40.8303125 41.62484375 -39.8403125 42.28484375 -38.8203125 42.96484375 C-40.10238609 45.82485408 -41.31182486 48.03523787 -43.8203125 49.96484375 C-45.1403125 49.96484375 -46.4603125 49.96484375 -47.8203125 49.96484375 C-50.0703125 47.46484375 -50.0703125 47.46484375 -51.8203125 44.96484375 C-51.49885254 44.4121582 -51.17739258 43.85947266 -50.84619141 43.29003906 C-49.67471468 40.6348405 -49.5071801 38.6550484 -49.40625 35.76171875 C-49.36757813 34.78203125 -49.32890625 33.80234375 -49.2890625 32.79296875 C-49.258125 31.7771875 -49.2271875 30.76140625 -49.1953125 29.71484375 C-49.15664063 28.68359375 -49.11796875 27.65234375 -49.078125 26.58984375 C-48.98399576 24.04835435 -48.89836271 21.50686942 -48.8203125 18.96484375 C-49.8103125 18.63484375 -50.8003125 18.30484375 -51.8203125 17.96484375 C-51.8203125 17.30484375 -51.8203125 16.64484375 -51.8203125 15.96484375 C-48.36082569 13.55464982 -44.76633578 12.08770972 -40.8203125 10.65234375 C-34.88533967 8.4351785 -29.19799751 5.86697205 -23.5 3.1015625 C-20.8203125 1.96484375 -20.8203125 1.96484375 -17.8203125 1.96484375 C-17.4903125 0.97484375 -17.1603125 -0.01515625 -16.8203125 -1.03515625 C-10.10688819 -3.61724252 -6.37914538 -2.8493516 0 0 Z " fill="#64331D" transform="translate(77.8203125,30.03515625)"/>
<path d="M0 0 C0.33 0.66 0.66 1.32 1 2 C5.62 2 10.24 2 15 2 C15 6.62 15 11.24 15 16 C10.38 16 5.76 16 1 16 C1.66 17.32 2.32 18.64 3 20 C7.48525648 19.343621 11.66914029 18.29925791 16 17 C15.01 17.99 14.02 18.98 13 20 C14.32 20.66 15.64 21.32 17 22 C3.78878216 28.46030788 3.78878216 28.46030788 -4 26 C-7.75656036 24.49835413 -11.39168385 22.82776388 -15 21 C-13.68 20.67 -12.36 20.34 -11 20 C-11 19.01 -11 18.02 -11 17 C-10.236875 17.309375 -9.47375 17.61875 -8.6875 17.9375 C-6.81210323 18.67893593 -4.91315348 19.36228217 -3 20 C-3.66 18.02 -4.32 16.04 -5 14 C-5.66 14 -6.32 14 -7 14 C-7 13.01 -7 12.02 -7 11 C-1.06 11 4.88 11 11 11 C11 11.33 11 11.66 11 12 C6.38 12 1.76 12 -3 12 C-3 12.99 -3 13.98 -3 15 C-2.47921875 14.83628906 -1.9584375 14.67257813 -1.421875 14.50390625 C1.6756875 13.85941341 4.58841094 13.90588411 7.75 13.9375 C9.50570312 13.95103516 9.50570312 13.95103516 11.296875 13.96484375 C12.18890625 13.97644531 13.0809375 13.98804688 14 14 C14 10.37 14 6.74 14 3 C9.38 3 4.76 3 0 3 C0 2.01 0 1.02 0 0 Z " fill="#772D11" transform="translate(67,38)"/>
<path d="M0 0 C3.51037358 0.58152562 6.62449169 2.06801417 9.859375 3.50390625 C11.53193359 4.24350586 11.53193359 4.24350586 13.23828125 4.99804688 C14.97658203 5.77245117 14.97658203 5.77245117 16.75 6.5625 C17.92433594 7.08263672 19.09867188 7.60277344 20.30859375 8.13867188 C23.20700899 9.42292903 26.10407449 10.71014084 29 12 C28 15 28 15 25.19140625 16.46484375 C23.99386719 16.95082031 22.79632813 17.43679687 21.5625 17.9375 C20.93158447 18.19474854 20.30066895 18.45199707 19.65063477 18.71704102 C18.37195519 19.23737161 17.09159745 19.75359786 15.80957031 20.265625 C14.20177394 20.91811441 12.61109449 21.61243078 11.0234375 22.3125 C9.74339844 22.869375 9.74339844 22.869375 8.4375 23.4375 C7.69371094 23.76621094 6.94992188 24.09492187 6.18359375 24.43359375 C3.49385266 25.13129045 1.65572017 24.71410402 -1 24 C-1.33 22.68 -1.66 21.36 -2 20 C2.62 20 7.24 20 12 20 C12 15.38 12 10.76 12 6 C7.38 6 2.76 6 -2 6 C-1 1 -1 1 0 0 Z " fill="#CA5F3A" transform="translate(70,34)"/>
<path d="M0 0 C0.99 0 1.98 0 3 0 C2.67 4.29 2.34 8.58 2 13 C2.99 13 3.98 13 5 13 C5 14.65 5 16.3 5 18 C3.68 17.67 2.36 17.34 1 17 C0.67 15.02 0.34 13.04 0 11 C-0.0825 11.94875 -0.165 12.8975 -0.25 13.875 C-0.4975 14.90625 -0.745 15.9375 -1 17 C-1.66128906 17.23847656 -2.32257813 17.47695313 -3.00390625 17.72265625 C-3.99197266 18.35494141 -3.99197266 18.35494141 -5 19 C-5.4405759 21.64045828 -5.65062556 23.91491521 -5.6875 26.5625 C-5.91142857 33.91142857 -5.91142857 33.91142857 -7 35 C-10.5 35.125 -10.5 35.125 -14 35 C-15 34 -15 34 -15.09765625 30.18359375 C-15.09098089 28.60153318 -15.07901875 27.01948841 -15.0625 25.4375 C-15.05798828 24.63119141 -15.05347656 23.82488281 -15.04882812 22.99414062 C-15.03700518 20.99606244 -15.01906914 18.99802217 -15 17 C-15.66 17 -16.32 17 -17 17 C-17.33 16.01 -17.66 15.02 -18 14 C-16.35 13.67 -14.7 13.34 -13 13 C-13 18.28 -13 23.56 -13 29 C-11.68 28.67 -10.36 28.34 -9 28 C-8.67 23.05 -8.34 18.1 -8 13 C-6.35 13 -4.7 13 -3 13 C-3 11.35 -3 9.7 -3 8 C-4.32 7.67 -5.64 7.34 -7 7 C-6.67 5.68 -6.34 4.36 -6 3 C-4.02 3 -2.04 3 0 3 C0 2.01 0 1.02 0 0 Z " fill="#7A341C" transform="translate(300,40)"/>
<path d="M0 0 C2 2 2 2 2.1953125 5.0390625 C2.17210937 6.22242188 2.14890625 7.40578125 2.125 8.625 C2.10695312 9.81351563 2.08890625 11.00203125 2.0703125 12.2265625 C2.04710937 13.14179687 2.02390625 14.05703125 2 15 C2.88816406 15.11601563 3.77632812 15.23203125 4.69140625 15.3515625 C7.88062533 15.97660426 10.09191428 16.85304978 12.9375 18.375 C13.79859375 18.8184375 14.6596875 19.261875 15.546875 19.71875 C17.01715256 20.48666567 18.48629729 21.25676497 19.953125 22.03125 C24.39276607 24.19107539 27.25360019 24.22751719 32 23 C35.06466825 21.79485466 38.02570767 20.41081477 41 19 C42.26807703 18.4519117 43.53868617 17.90961994 44.8125 17.375 C45.864375 16.92125 46.91625 16.4675 48 16 C49.06927734 15.63261719 49.06927734 15.63261719 50.16015625 15.2578125 C52.27870695 14.11987061 52.27870695 14.11987061 52.5390625 11.46875 C52.58160156 9.99921875 52.58160156 9.99921875 52.625 8.5 C52.80653951 3.19346049 52.80653951 3.19346049 55 1 C57.11460832 5.22921665 56.61632743 10.4152786 56 15 C53.75927699 17.49680564 53.01176146 17.90579889 50 19 C48.99453125 19.40476562 47.9890625 19.80953125 46.953125 20.2265625 C44.6863306 21.11970038 42.40860136 21.98555251 40.12109375 22.82421875 C37.69608864 23.73776886 35.43910297 24.72581961 33.125 25.875 C26.09112306 28.4071957 19.43809056 24.92090552 13 22 C8.29537347 19.74188041 3.64299911 17.38171136 -1 15 C-1.02685412 12.68756208 -1.04632841 10.3750373 -1.0625 8.0625 C-1.07410156 6.77472656 -1.08570313 5.48695312 -1.09765625 4.16015625 C-1 1 -1 1 0 0 Z " fill="#6F3B29" transform="translate(42,53)"/>
<path d="M0 0 C0.94746094 -0.01417969 1.89492187 -0.02835938 2.87109375 -0.04296875 C5.60751644 0.19135482 7.22678123 0.79048617 9.5625 2.1875 C9.5625 3.1775 9.5625 4.1675 9.5625 5.1875 C8.5725 5.1875 7.5825 5.1875 6.5625 5.1875 C6.5625 6.1775 6.5625 7.1675 6.5625 8.1875 C3.5925 8.1875 0.6225 8.1875 -2.4375 8.1875 C-3.0871875 9.79625 -3.0871875 9.79625 -3.75 11.4375 C-5.0112333 14.34305148 -6.16854113 16.91854113 -8.4375 19.1875 C-9.7575 19.1875 -11.0775 19.1875 -12.4375 19.1875 C-11.81862704 5.99910387 -11.81862704 5.99910387 -8.4375 1.1875 C-5.3864365 0.17047883 -3.19550939 0.02167917 0 0 Z " fill="#571D08" transform="translate(218.4375,45.8125)"/>
<path d="M0 0 C2.31 0.66 4.62 1.32 7 2 C7.02712153 3.916588 7.04645097 5.8332873 7.0625 7.75 C7.07410156 8.81734375 7.08570313 9.8846875 7.09765625 10.984375 C7 14 7 14 6.43359375 16.203125 C5.77894806 18.22007564 5.77894806 18.22007564 7 21 C6.34 21 5.68 21 5 21 C5 21.66 5 22.32 5 23 C2.69 23 0.38 23 -2 23 C-4.8 7.6 -4.8 7.6 -2 2 C-1.34 2 -0.68 2 0 2 C0 1.34 0 0.68 0 0 Z " fill="#5B1D09" transform="translate(180,45)"/>
<path d="M0 0 C0.99 0.33 1.98 0.66 3 1 C1.125 5.75 1.125 5.75 0 8 C-2.31 8 -4.62 8 -7 8 C-6.97679687 8.80824219 -6.95359375 9.61648437 -6.9296875 10.44921875 C-6.90261719 12.05216797 -6.90261719 12.05216797 -6.875 13.6875 C-6.85179687 14.74324219 -6.82859375 15.79898438 -6.8046875 16.88671875 C-7.00141271 20.02251859 -7.66942346 22.17645373 -9 25 C-11.875 25.125 -11.875 25.125 -15 25 C-15.66 24.34 -16.32 23.68 -17 23 C-16.9765625 19.9609375 -16.9765625 19.9609375 -16.625 16.375 C-16.51414063 15.18648437 -16.40328125 13.99796875 -16.2890625 12.7734375 C-16.19367188 11.85820313 -16.09828125 10.94296875 -16 10 C-15.67 10 -15.34 10 -15 10 C-15 12.97 -15 15.94 -15 19 C-13.35 19 -11.7 19 -10 19 C-10 14.05 -10 9.1 -10 4 C-6.97265625 3.75585938 -6.97265625 3.75585938 -3.9453125 3.51171875 C-1.60480784 3.12606964 -1.60480784 3.12606964 0 0 Z " fill="#733419" transform="translate(249,50)"/>
<path d="M0 0 C1.134375 0.020625 2.26875 0.04125 3.4375 0.0625 C4.74641285 4.70319102 4.17338321 8.69477759 3.5 13.375 C3.40009766 14.11556641 3.30019531 14.85613281 3.19726562 15.61914062 C2.95130065 17.43459637 2.69539626 19.24870071 2.4375 21.0625 C-0.85226808 22.15908936 -2.27553767 21.86203138 -5.5625 21.0625 C-5.40652344 20.45664063 -5.25054687 19.85078125 -5.08984375 19.2265625 C-3.76471464 13.52236435 -3.51202613 8.79253947 -4.37109375 2.99609375 C-4.43425781 2.35800781 -4.49742187 1.71992187 -4.5625 1.0625 C-3.5625 0.0625 -3.5625 0.0625 0 0 Z " fill="#561C08" transform="translate(198.5625,45.9375)"/>
<path d="M0 0 C0.33 1.32 0.66 2.64 1 4 C0.01 4.33 -0.98 4.66 -2 5 C-2 5.99 -2 6.98 -2 8 C-3.98 8 -5.96 8 -8 8 C-8.33 8.66 -8.66 9.32 -9 10 C-10.65 9.67 -12.3 9.34 -14 9 C-14.66 10.65 -15.32 12.3 -16 14 C-16.66 14 -17.32 14 -18 14 C-18.33 15.65 -18.66 17.3 -19 19 C-19.33 19 -19.66 19 -20 19 C-20 16.69 -20 14.38 -20 12 C-19.01 12 -18.02 12 -17 12 C-16.6596875 10.14375 -16.6596875 10.14375 -16.3125 8.25 C-15.54252179 5.29579787 -14.95674893 3.94593617 -13 1.5 C-8.68113248 -0.65943376 -4.74042953 -0.33136983 0 0 Z " fill="#571E07" transform="translate(302,35)"/>
<path d="M0 0 C1.32 0 2.64 0 4 0 C5.83069903 3.12929178 6.23931181 5.37643146 6.1953125 8.984375 C6.18886719 9.91894531 6.18242188 10.85351562 6.17578125 11.81640625 C6.15902344 12.78449219 6.14226563 13.75257812 6.125 14.75 C6.11597656 15.73355469 6.10695313 16.71710937 6.09765625 17.73046875 C6.07412785 20.15389407 6.04125368 22.57682222 6 25 C5.01 25.33 4.02 25.66 3 26 C3.99 27.65 4.98 29.3 6 31 C9.12474627 29.36526484 9.12474627 29.36526484 9.6875 26.875 C9.790625 26.25625 9.89375 25.6375 10 25 C10.99 25.66 11.98 26.32 13 27 C11.71792641 29.86001033 10.50848764 32.07039412 8 34 C6.68 34 5.36 34 4 34 C1.75 31.5 1.75 31.5 0 29 C0.32145996 28.44731445 0.64291992 27.89462891 0.97412109 27.32519531 C2.14559782 24.66999675 2.3131324 22.69020465 2.4140625 19.796875 C2.45273437 18.8171875 2.49140625 17.8375 2.53125 16.828125 C2.5621875 15.81234375 2.593125 14.7965625 2.625 13.75 C2.66367187 12.71875 2.70234375 11.6875 2.7421875 10.625 C2.83631674 8.0835106 2.92194979 5.54202567 3 3 C2.01 2.67 1.02 2.34 0 2 C0 1.34 0 0.68 0 0 Z " fill="#6A3720" transform="translate(26,46)"/>
<path d="M0 0 C0.556875 0.78375 1.11375 1.5675 1.6875 2.375 C4.19331573 5.21943947 5.33877302 6.16790296 9 7 C10.95850492 6.77525353 12.91785182 6.54524237 14.86328125 6.2265625 C18.34762722 5.85710717 21.55198071 6.44585404 25 7 C24.67 8.65 24.34 10.3 24 12 C23.32453125 11.98839844 22.6490625 11.97679688 21.953125 11.96484375 C21.06109375 11.95582031 20.1690625 11.94679688 19.25 11.9375 C18.36828125 11.92589844 17.4865625 11.91429688 16.578125 11.90234375 C14.05116706 11.90155655 14.05116706 11.90155655 11.890625 12.5703125 C9.15691042 13.19161127 7.16086441 12.24799233 4.6875 11.0859375 C1.82086358 9.24120388 0.47549974 7.01247863 -1 4 C-0.75 1.625 -0.75 1.625 0 0 Z " fill="#CD734B" transform="translate(254,63)"/>
<path d="M0 0 C0.33 1.32 0.66 2.64 1 4 C-1 6 -1 6 -3.33837891 6.22705078 C-4.29147949 6.21657715 -5.24458008 6.20610352 -6.2265625 6.1953125 C-7.7734375 6.18564453 -7.7734375 6.18564453 -9.3515625 6.17578125 C-10.43179688 6.15902344 -11.51203125 6.14226562 -12.625 6.125 C-13.71296875 6.11597656 -14.8009375 6.10695313 -15.921875 6.09765625 C-18.61480152 6.07403409 -21.30729255 6.04109556 -24 6 C-24 4.35 -24 2.7 -24 1 C-16.08 0.67 -8.16 0.34 0 0 Z " fill="#D97E54" transform="translate(144,69)"/>
<path d="M0 0 C0.66 0 1.32 0 2 0 C2.226875 0.78375 2.45375 1.5675 2.6875 2.375 C3.77916711 5.13802056 3.77916711 5.13802056 6.25 6.375 C10.5350245 7.3488692 13.89999261 6.36666913 18 5 C18 5.66 18 6.32 18 7 C20.31 7 22.62 7 25 7 C24.67 8.65 24.34 10.3 24 12 C22.80375 11.79375 21.6075 11.5875 20.375 11.375 C17.23075002 10.95502988 16.01927707 10.99291863 12.9375 12.125 C10 13 10 13 6.3125 11.9375 C2.78987647 9.87709756 1.51517974 8.74338524 0 5 C-0.1875 2.1875 -0.1875 2.1875 0 0 Z " fill="#CF7347" transform="translate(148,63)"/>
<path d="M0 0 C0.66 0.33 1.32 0.66 2 1 C2.33 1.99 2.66 2.98 3 4 C3.99 3.67 4.98 3.34 6 3 C6.33 5.64 6.66 8.28 7 11 C8.98 11.66 10.96 12.32 13 13 C13 14.32 13 15.64 13 17 C9.46277016 17.90487275 7.6285798 18.28571809 4.25 16.75 C2 15 2 15 0 12 C-0.33 12 -0.66 12 -1 12 C-1.08159574 7.83861737 -0.98248524 4.0527516 0 0 Z " fill="#5F220B" transform="translate(305,53)"/>
<path d="M0 0 C0.99 0 1.98 0 3 0 C2.67 4.29 2.34 8.58 2 13 C2.99 13 3.98 13 5 13 C5 14.65 5 16.3 5 18 C3.68 17.67 2.36 17.34 1 17 C0.67 15.02 0.34 13.04 0 11 C-0.33 12.98 -0.66 14.96 -1 17 C-2.65 17.33 -4.3 17.66 -6 18 C-6.33 16.35 -6.66 14.7 -7 13 C-5.68 13 -4.36 13 -3 13 C-3 11.35 -3 9.7 -3 8 C-4.32 7.67 -5.64 7.34 -7 7 C-6.67 5.68 -6.34 4.36 -6 3 C-4.02 3 -2.04 3 0 3 C0 2.01 0 1.02 0 0 Z " fill="#834123" transform="translate(300,40)"/>
<path d="M0 0 C0.53625 0.474375 1.0725 0.94875 1.625 1.4375 C5.07402869 3.70659782 8.2399911 4.33297466 12.3125 3.5625 C13.199375 3.376875 14.08625 3.19125 15 3 C18.00190652 2.90872582 20.99760369 2.94112948 24 3 C23.34 4.98 22.68 6.96 22 9 C19 9 16 9 13 9 C11.329375 9.061875 11.329375 9.061875 9.625 9.125 C6.17808169 9.00614075 4.06654916 8.48681172 1 7 C0.67 4.69 0.34 2.38 0 0 Z " fill="#D47D4E" transform="translate(179,66)"/>
<path d="M0 0 C13.02989057 -0.42031905 22.52589601 3.27824681 34 9 C34 9.66 34 10.32 34 11 C33.39671875 10.79503906 32.7934375 10.59007812 32.171875 10.37890625 C31.37265625 10.10949219 30.5734375 9.84007812 29.75 9.5625 C28.96109375 9.29566406 28.1721875 9.02882813 27.359375 8.75390625 C25.25178012 8.08045292 23.15246027 7.50849405 21 7 C21 7.66 21 8.32 21 9 C16.18080529 8.32512263 12.08116134 6.42034091 7.6875 4.4375 C6.94693359 4.10814453 6.20636719 3.77878906 5.44335938 3.43945312 C3.62688438 2.63082877 1.81316069 1.81602884 0 1 C0 0.67 0 0.34 0 0 Z " fill="#67260F" transform="translate(76,36)"/>
<path d="M0 0 C1.485 0.99 1.485 0.99 3 2 C3 2.66 3 3.32 3 4 C9.68650564 5.48725585 15.23893038 6.27567351 22 5 C20.98912198 7.93154625 19.97304162 9.01972564 17.4375 10.875 C12.78776787 12.39673052 9.5108734 11.7408884 5 10 C1.7677469 7.73742283 1.14027124 6.60784204 0.25 2.75 C0.1675 1.8425 0.085 0.935 0 0 Z " fill="#D57B4E" transform="translate(207,64)"/>
<path d="M0 0 C3.2578125 -0.29296875 3.2578125 -0.29296875 7.125 -0.1875 C9.04699219 -0.14689453 9.04699219 -0.14689453 11.0078125 -0.10546875 C11.99523437 -0.07066406 12.98265625 -0.03585938 14 0 C14 3.63 14 7.26 14 11 C13.10796875 11.06058594 12.2159375 11.12117188 11.296875 11.18359375 C9.54117188 11.30927734 9.54117188 11.30927734 7.75 11.4375 C6.58984375 11.51871094 5.4296875 11.59992187 4.234375 11.68359375 C1.69022624 11.93247787 -0.55953248 12.28114942 -3 13 C-3.33 12.34 -3.66 11.68 -4 11 C-3.67 10.34 -3.34 9.68 -3 9 C1.62 9 6.24 9 11 9 C11 7.02 11 5.04 11 3 C6.71 3 2.42 3 -2 3 C-1.34 2.01 -0.68 1.02 0 0 Z " fill="#5C1E05" transform="translate(67,41)"/>
<path d="M0 0 C2.0625 0.4375 2.0625 0.4375 4 1 C4 1.66 4 2.32 4 3 C5.27875 2.979375 6.5575 2.95875 7.875 2.9375 C11.75 2.875 11.75 2.875 14 4 C13 7 13 7 10.85546875 8.16796875 C9.97503906 8.50441406 9.09460938 8.84085938 8.1875 9.1875 C7.31480469 9.53167969 6.44210938 9.87585937 5.54296875 10.23046875 C3 11 3 11 -1 11 C-1.02688151 9.35425434 -1.04634123 7.70838587 -1.0625 6.0625 C-1.07410156 5.14597656 -1.08570312 4.22945312 -1.09765625 3.28515625 C-1 1 -1 1 0 0 Z " fill="#DE673A" transform="translate(85,42)"/>
<path d="M0 0 C1.4540625 0.0309375 1.4540625 0.0309375 2.9375 0.0625 C3.2675 1.0525 3.5975 2.0425 3.9375 3.0625 C4.5975 3.0625 5.2575 3.0625 5.9375 3.0625 C5.90444498 5.00072596 5.83500095 6.93835668 5.75 8.875 C5.71519531 9.95394531 5.68039062 11.03289063 5.64453125 12.14453125 C4.9375 15.0625 4.9375 15.0625 2.59375 16.96875 C-0.70496445 18.32704419 -2.65498474 17.93418995 -6.0625 17.0625 C-6.0625 16.7325 -6.0625 16.4025 -6.0625 16.0625 C-3.7525 16.0625 -1.4425 16.0625 0.9375 16.0625 C0.6075 14.4125 0.2775 12.7625 -0.0625 11.0625 C0.9275 10.7325 1.9175 10.4025 2.9375 10.0625 C2.9375 8.4125 2.9375 6.7625 2.9375 5.0625 C0.6275 4.7325 -1.6825 4.4025 -4.0625 4.0625 C-4.3925 4.7225 -4.7225 5.3825 -5.0625 6.0625 C-3.98897059 0.08140756 -3.98897059 0.08140756 0 0 Z " fill="#6C2B11" transform="translate(266.0625,52.9375)"/>
<path d="M0 0 C2.31 0 4.62 0 7 0 C7.625 2.375 7.625 2.375 8 5 C5.8614515 7.1385485 4.86724686 7.42655063 2 8 C2 8.66 2 9.32 2 10 C-3.625 11.125 -3.625 11.125 -7 10 C-7 9.34 -7 8.68 -7 8 C-6.34 8 -5.68 8 -5 8 C-5 7.34 -5 6.68 -5 6 C-3.35 6 -1.7 6 0 6 C0 4.02 0 2.04 0 0 Z " fill="#77432E" transform="translate(50,21)"/>
<path d="M0 0 C2.85375411 1.2632209 5.73504687 2.4554077 8.6171875 3.65234375 C9.66777344 4.08933594 10.71835938 4.52632812 11.80078125 4.9765625 C12.58582031 5.30269531 13.37085937 5.62882812 14.1796875 5.96484375 C13.8496875 6.62484375 13.5196875 7.28484375 13.1796875 7.96484375 C8.82709428 7.0321452 5.14277852 6.06061846 1.2421875 3.90234375 C-4.24276458 1.02516849 -9.38971209 0.32521206 -15.3828125 1.90234375 C-16.589375 2.42828125 -16.589375 2.42828125 -17.8203125 2.96484375 C-17.4903125 1.64484375 -17.1603125 0.32484375 -16.8203125 -1.03515625 C-9.9226869 -3.33436478 -6.53100697 -2.91718311 0 0 Z " fill="#824D34" transform="translate(77.8203125,30.03515625)"/>
<path d="M0 0 C2 1 2 1 2.8125 3 C3.83403934 5.21729782 3.83403934 5.21729782 6.25 5.75 C9.18405528 6.0167323 12.05540397 6.06847898 15 6 C15 7.32 15 8.64 15 10 C10.95269975 12.02365012 8.34390623 12.38635305 4 11 C0.86259883 7.94739345 -0.63462972 5.38444331 -1 1 C-0.67 0.67 -0.34 0.34 0 0 Z " fill="#CB7146" transform="translate(305,64)"/>
<path d="M0 0 C4.95 0 9.9 0 15 0 C15 1.65 15 3.3 15 5 C9.72 5 4.44 5 -1 5 C-0.67 3.35 -0.34 1.7 0 0 Z " fill="#571E07" transform="translate(128,64)"/>
<path d="M0 0 C5.94 0 11.88 0 18 0 C18 1.32 18 2.64 18 4 C12.06 4 6.12 4 0 4 C0 4.99 0 5.98 0 7 C0.66 7 1.32 7 2 7 C2.66 8.98 3.32 10.96 4 13 C1.15449988 12.33989524 -1.52325999 11.48275034 -4.25 10.4375 C-4.95640625 10.16808594 -5.6628125 9.89867187 -6.390625 9.62109375 C-6.92171875 9.41613281 -7.4528125 9.21117187 -8 9 C-4.98968256 8.06576355 -4.13349732 7.95550089 -1 9 C-1 7.02 -1 5.04 -1 3 C4.94 3 10.88 3 17 3 C17 2.34 17 1.68 17 1 C11.39 1 5.78 1 0 1 C0 0.67 0 0.34 0 0 Z " fill="#C76848" transform="translate(60,45)"/>
<path d="M0 0 C4.62 0 9.24 0 14 0 C14.33 1.32 14.66 2.64 15 4 C14.01 4 13.02 4 12 4 C12 4.66 12 5.32 12 6 C3.42857143 6.28571429 3.42857143 6.28571429 0 4 C0 2.68 0 1.36 0 0 Z " fill="#AE5632" transform="translate(128,57)"/>
<path d="M0 0 C5.61 0 11.22 0 17 0 C16.67 1.65 16.34 3.3 16 5 C10.72 4.67 5.44 4.34 0 4 C0 2.68 0 1.36 0 0 Z " fill="#C66A3E" transform="translate(128,45)"/>
<path d="M0 0 C0.125 2.875 0.125 2.875 0 6 C-2 8 -2 8 -5.0625 8.1875 C-8 8 -8 8 -9 7 C-9.04092937 4.66702567 -9.04241723 2.33294775 -9 0 C-3.375 -1.125 -3.375 -1.125 0 0 Z " fill="#7B462C" transform="translate(49,16)"/>
<path d="M0 0 C0.66 0 1.32 0 2 0 C2 10.89 2 21.78 2 33 C1.34 33 0.68 33 0 33 C-1.70143795 22.05844518 -0.64159753 10.99445016 0 0 Z " fill="#642F17" transform="translate(120,37)"/>
<path d="M0 0 C2.31 0 4.62 0 7 0 C7 1.32 7 2.64 7 4 C5.68 4.33 4.36 4.66 3 5 C2.67 6.65 2.34 8.3 2 10 C2.763125 9.896875 3.52625 9.79375 4.3125 9.6875 C5.6428125 9.8421875 5.6428125 9.8421875 7 10 C8.81883009 12.3832946 10 13.95818337 10 17 C9.01 17 8.02 17 7 17 C6.938125 16.071875 6.938125 16.071875 6.875 15.125 C6.58625 14.42375 6.2975 13.7225 6 13 C3.00384054 11.6954344 3.00384054 11.6954344 0 11 C0 7.37 0 3.74 0 0 Z " fill="#72341C" transform="translate(311,53)"/>
<path d="M0 0 C8.61806312 2.66965564 8.61806312 2.66965564 11.66015625 6.6796875 C10.07647878 6.53764009 8.49322307 6.39088597 6.91015625 6.2421875 C6.0284375 6.16097656 5.14671875 6.07976563 4.23828125 5.99609375 C1.96665173 5.71730285 -0.13836198 5.29178173 -2.33984375 4.6796875 C-3.32984375 6.6596875 -4.31984375 8.6396875 -5.33984375 10.6796875 C-5.66984375 10.6796875 -5.99984375 10.6796875 -6.33984375 10.6796875 C-6.25275706 9.22023462 -6.14457468 7.76202882 -6.02734375 6.3046875 C-5.96933594 5.49257813 -5.91132812 4.68046875 -5.8515625 3.84375 C-5.0584657 0.48973758 -3.35262044 -0.45895639 0 0 Z " fill="#60220A" transform="translate(72.33984375,30.3203125)"/>
<path d="M0 0 C0.99 0.33 1.98 0.66 3 1 C1.75023244 4.65316671 1.32901247 5.78065836 -2 8 C-4.26171875 7.9765625 -4.26171875 7.9765625 -6.6875 7.625 C-7.49574219 7.51414062 -8.30398437 7.40328125 -9.13671875 7.2890625 C-10.05904297 7.14597656 -10.05904297 7.14597656 -11 7 C-10.125 3.125 -10.125 3.125 -9 2 C-7.47480724 2.08937803 -5.95318071 2.24537146 -4.4375 2.4375 C-3.19806641 2.59025391 -3.19806641 2.59025391 -1.93359375 2.74609375 C-1.29550781 2.82988281 -0.65742188 2.91367187 0 3 C0 2.01 0 1.02 0 0 Z " fill="#C16D44" transform="translate(225,51)"/>
<path d="M0 0 C2.66180172 2.66180172 2.39107316 4.16241019 2.5 7.875 C2.41108317 13.57935676 2.41108317 13.57935676 -0.6875 16.75 C-3.78566409 17.91911852 -5.74106426 18.3834042 -9 18 C-7.35736641 16.19310305 -6.2535039 15.0929674 -3.93359375 14.2421875 C-1.72077906 13.13972855 -1.72077906 13.13972855 -1.42578125 10.46875 C-1.38839844 9.4890625 -1.35101563 8.509375 -1.3125 7.5 C-1.06521739 2.13043478 -1.06521739 2.13043478 0 0 Z " fill="#764531" transform="translate(96,54)"/>
<path d="M0 0 C0.66 0 1.32 0 2 0 C2.226875 0.78375 2.45375 1.5675 2.6875 2.375 C3.76670768 5.21535469 3.76670768 5.21535469 6.5625 6.1875 C7.366875 6.455625 8.17125 6.72375 9 7 C9.33 7.66 9.66 8.32 10 9 C12.02463255 9.65213292 12.02463255 9.65213292 14 10 C14 10.66 14 11.32 14 12 C10.94508944 13.34416065 9.70626765 12.90724242 6.4375 11.875 C2.7697889 9.87443031 1.547421 8.82304012 0 5 C-0.1875 2.1875 -0.1875 2.1875 0 0 Z " fill="#D37D4D" transform="translate(148,63)"/>
<path d="M0 0 C2 2 2 2 2.1953125 5.0390625 C2.17210937 6.22242188 2.14890625 7.40578125 2.125 8.625 C2.10695312 9.81351563 2.08890625 11.00203125 2.0703125 12.2265625 C2.04710937 13.14179687 2.02390625 14.05703125 2 15 C4.97 15.495 4.97 15.495 8 16 C8 16.66 8 17.32 8 18 C4.26512223 17.5020163 2.18762365 17.12508244 -1 15 C-1.328125 11.77734375 -1.328125 11.77734375 -1.25 7.9375 C-1.23453125 6.66777344 -1.2190625 5.39804687 -1.203125 4.08984375 C-1 1 -1 1 0 0 Z " fill="#65321D" transform="translate(42,53)"/>
<path d="M0 0 C0.99 0.33 1.98 0.66 3 1 C1.125 5.75 1.125 5.75 0 8 C-2.64860427 8.59355614 -5.29197322 8.74209269 -8 9 C-8.625 7.125 -8.625 7.125 -9 5 C-8.34 4.34 -7.68 3.68 -7 3 C-5.7625 3.0309375 -5.7625 3.0309375 -4.5 3.0625 C-3.675 3.041875 -2.85 3.02125 -2 3 C-1.34 2.01 -0.68 1.02 0 0 Z " fill="#C26F4B" transform="translate(249,50)"/>
<path d="M0 0 C1.32 0.33 2.64 0.66 4 1 C3.67 1.99 3.34 2.98 3 4 C2.34 4 1.68 4 1 4 C0.66733709 10.20970773 1.54970669 14.28264895 4 20 C2.68 19.34 1.36 18.68 0 18 C0 16.68 0 15.36 0 14 C-0.66 14 -1.32 14 -2 14 C-2.97919756 10.92449216 -2.98561151 8.97555928 -2.125 5.875 C-1.94195312 5.19179688 -1.75890625 4.50859375 -1.5703125 3.8046875 C-1 2 -1 2 0 0 Z " fill="#6A2A11" transform="translate(150,49)"/>
<path d="M0 0 C5.19644079 1.59890486 10.06612142 3.74138003 15 6 C15.33 5.34 15.66 4.68 16 4 C16.33 5.32 16.66 6.64 17 8 C16.13375 7.979375 15.2675 7.95875 14.375 7.9375 C11.14096352 7.99738956 8.17200103 8.39580933 5 9 C5.33 7.35 5.66 5.7 6 4 C4.68 4 3.36 4 2 4 C2 3.34 2 2.68 2 2 C1.01 1.67 0.02 1.34 -1 1 C-0.67 0.67 -0.34 0.34 0 0 Z " fill="#57210B" transform="translate(95,41)"/>
<path d="M0 0 C0.33 1.32 0.66 2.64 1 4 C0.34 4 -0.32 4 -1 4 C-0.01 5.65 0.98 7.3 2 9 C5.12474627 7.36526484 5.12474627 7.36526484 5.6875 4.875 C5.790625 4.25625 5.89375 3.6375 6 3 C6.99 3.66 7.98 4.32 9 5 C7.71792641 7.86001033 6.50848764 10.07039412 4 12 C2.68 12 1.36 12 0 12 C-2.25 9.5 -2.25 9.5 -4 7 C-2.79618552 4.50638429 -1.54571278 2.31856917 0 0 Z " fill="#6D3A24" transform="translate(30,68)"/>
<path d="M0 0 C0.66 0.66 1.32 1.32 2 2 C1.01 2.33 0.02 2.66 -1 3 C-0.91298828 4.46373047 -0.91298828 4.46373047 -0.82421875 5.95703125 C-0.77910156 7.22933594 -0.73398438 8.50164063 -0.6875 9.8125 C-0.60048828 11.70935547 -0.60048828 11.70935547 -0.51171875 13.64453125 C-1 17 -1 17 -3.33203125 19.01171875 C-6 20 -6 20 -9 19 C-7.35 18.34 -5.7 17.68 -4 17 C-3.94610913 15.04196493 -3.90725783 13.08351091 -3.875 11.125 C-3.85179688 10.03445312 -3.82859375 8.94390625 -3.8046875 7.8203125 C-3.69939466 4.8628949 -3.69939466 4.8628949 -6 3 C-4.02 2.67 -2.04 2.34 0 2 C0 1.34 0 0.68 0 0 Z " fill="#581F08" transform="translate(96,50)"/>
<path d="M0 0 C0.66 0 1.32 0 2 0 C2 1.32 2 2.64 2 4 C3.98 4 5.96 4 8 4 C8 3.34 8 2.68 8 2 C8.66 2 9.32 2 10 2 C10.33 3.32 10.66 4.64 11 6 C9.39950296 6.39036513 7.79437629 6.76178619 6.1875 7.125 C5.29417969 7.33382812 4.40085938 7.54265625 3.48046875 7.7578125 C1 8 1 8 -2 6 C-2.33 6.99 -2.66 7.98 -3 9 C-2.34 9 -1.68 9 -1 9 C-1.33 9.66 -1.66 10.32 -2 11 C-2.99 10.01 -3.98 9.02 -5 8 C-3.38731308 5.28775382 -1.75098126 2.62647188 0 0 Z " fill="#662911" transform="translate(214,58)"/>
<path d="M0 0 C1.98 0 3.96 0 6 0 C6.33 0.99 6.66 1.98 7 3 C7.66 3 8.32 3 9 3 C9 4.65 9 6.3 9 8 C8.01 7.67 7.02 7.34 6 7 C6 6.34 6 5.68 6 5 C3.36 5 0.72 5 -2 5 C-2 4.01 -2 3.02 -2 2 C-1.34 2 -0.68 2 0 2 C0 1.34 0 0.68 0 0 Z " fill="#B25A36" transform="translate(157,53)"/>
<path d="M0 0 C0.66 0.33 1.32 0.66 2 1 C2.33 7.93 2.66 14.86 3 22 C2.01 22 1.02 22 0 22 C-1.05476879 17.04649325 -0.95554228 12.62160651 -0.5625 7.625 C-0.51029297 6.88894531 -0.45808594 6.15289062 -0.40429688 5.39453125 C-0.27582277 3.59589371 -0.13879051 1.79787091 0 0 Z " fill="#642D19" transform="translate(34,50)"/>
<path d="M0 0 C4.62 0 9.24 0 14 0 C12.32850504 3.34298992 9.39660753 3.81118736 6 5 C3.0625 4.6875 3.0625 4.6875 1 4 C0.67 2.68 0.34 1.36 0 0 Z " fill="#DD693F" transform="translate(68,54)"/>
<path d="M0 0 C0.33 0.99 0.66 1.98 1 3 C0.01 3.33 -0.98 3.66 -2 4 C-3.23950042 6.09138456 -3.23950042 6.09138456 -4.1875 8.5625 C-4.53167969 9.38878906 -4.87585938 10.21507812 -5.23046875 11.06640625 C-5.48441406 11.70449219 -5.73835938 12.34257813 -6 13 C-6.66 13 -7.32 13 -8 13 C-8.33 14.65 -8.66 16.3 -9 18 C-9.33 18 -9.66 18 -10 18 C-10 15.69 -10 13.38 -10 11 C-9.01 11 -8.02 11 -7 11 C-6.731875 9.741875 -6.46375 8.48375 -6.1875 7.1875 C-4.39380531 0 -4.39380531 0 0 0 Z " fill="#602712" transform="translate(292,36)"/>
<path d="M0 0 C0.33 1.32 0.66 2.64 1 4 C5.62 4 10.24 4 15 4 C15 6.64 15 9.28 15 12 C14.34 12 13.68 12 13 12 C13 10.02 13 8.04 13 6 C8.71 6 4.42 6 0 6 C0 4.02 0 2.04 0 0 Z " fill="#7A371A" transform="translate(127,45)"/>
<path d="M0 0 C1 2 2 4 3 6 C5.35599235 6.46751788 5.35599235 6.46751788 8.0625 6.625 C8.98160156 6.69976562 9.90070313 6.77453125 10.84765625 6.8515625 C11.55792969 6.90054688 12.26820312 6.94953125 13 7 C13 7.33 13 7.66 13 8 C7.06 8 1.12 8 -5 8 C-5 5 -5 5 -2.5 2.3125 C-1.675 1.549375 -0.85 0.78625 0 0 Z " fill="#6F2A10" transform="translate(65,37)"/>
<path d="M0 0 C4.71370756 0.64985095 8.57686444 2.51561392 12.8125 4.5625 C13.50537109 4.89185547 14.19824219 5.22121094 14.91210938 5.56054688 C16.61044948 6.36872251 18.30555769 7.18368377 20 8 C20 8.66 20 9.32 20 10 C13.06001352 7.83836487 6.56882431 5.1063786 0 2 C0 1.34 0 0.68 0 0 Z " fill="#69321D" transform="translate(90,37)"/>
<path d="M0 0 C0.33 0.99 0.66 1.98 1 3 C0 4 0 4 -2.14453125 4.0625 C-3.91536888 4.02101625 -5.68620227 3.9793512 -7.45703125 3.9375 C-9.96402366 3.89009466 -9.96402366 3.89009466 -12.13671875 4.625 C-12.75160156 4.74875 -13.36648438 4.8725 -14 5 C-14.99 4.34 -15.98 3.68 -17 3 C-11.17745757 1.03181664 -6.16618181 -0.40214229 0 0 Z " fill="#DA8459" transform="translate(278,71)"/>
<path d="M0 0 C2.97 0 5.94 0 9 0 C8.67 1.65 8.34 3.3 8 5 C5.69 5 3.38 5 1 5 C0.67 3.35 0.34 1.7 0 0 Z " fill="#D27D52" transform="translate(285,70)"/>
<path d="M0 0 C0.763125 0.309375 1.52625 0.61875 2.3125 0.9375 C4.18789677 1.67893593 6.08684652 2.36228217 8 3 C8.33 2.34 8.66 1.68 9 1 C9 1.99 9 2.98 9 4 C8.01 4 7.02 4 6 4 C6.99 5.65 7.98 7.3 9 9 C-0.59453303 6.10933941 -0.59453303 6.10933941 -4 3 C-2.35 3 -0.7 3 1 3 C0.67 2.01 0.34 1.02 0 0 Z " fill="#7C3013" transform="translate(56,55)"/>
<path d="M0 0 C0.99 0 1.98 0 3 0 C2.125 5.875 2.125 5.875 1 7 C-1.67058851 7.14115161 -4.32432238 7.04247107 -7 7 C-6.67 5.68 -6.34 4.36 -6 3 C-4.02 3 -2.04 3 0 3 C0 2.01 0 1.02 0 0 Z " fill="#BA6D48" transform="translate(300,40)"/>
<path d="M0 0 C2.97 0 5.94 0 9 0 C8.67 1.65 8.34 3.3 8 5 C5.125 5.125 5.125 5.125 2 5 C1.34 4.34 0.68 3.68 0 3 C0 2.01 0 1.02 0 0 Z " fill="#D68158" transform="translate(232,70)"/>
<path d="M0 0 C0.53625 0.474375 1.0725 0.94875 1.625 1.4375 C5.09431743 3.71994567 8.28658897 4.31562835 12.375 3.5625 C12.91125 3.376875 13.4475 3.19125 14 3 C14 3.66 14 4.32 14 5 C12.68 5.33 11.36 5.66 10 6 C10 6.66 10 7.32 10 8 C7.03 7.67 4.06 7.34 1 7 C0.67 4.69 0.34 2.38 0 0 Z " fill="#CB7046" transform="translate(179,66)"/>
<path d="M0 0 C1.4540625 0.0309375 1.4540625 0.0309375 2.9375 0.0625 C3.5975 1.7125 4.2575 3.3625 4.9375 5.0625 C1.9675 4.7325 -1.0025 4.4025 -4.0625 4.0625 C-4.3925 4.7225 -4.7225 5.3825 -5.0625 6.0625 C-3.98897059 0.08140756 -3.98897059 0.08140756 0 0 Z " fill="#BC673F" transform="translate(266.0625,52.9375)"/>
<path d="M0 0 C0.66 0.33 1.32 0.66 2 1 C1.67 1.66 1.34 2.32 1 3 C1.66 3.33 2.32 3.66 3 4 C2.67 4.66 2.34 5.32 2 6 C-0.31 6 -2.62 6 -5 6 C-5.66 4.68 -6.32 3.36 -7 2 C-2.25 0.875 -2.25 0.875 0 2 C0 1.34 0 0.68 0 0 Z " fill="#581E09" transform="translate(265,63)"/>
<path d="M0 0 C0 1.32 0 2.64 0 4 C-4.07369424 6.03684712 -6.58937864 6.0257259 -11 5 C-11 4.34 -11 3.68 -11 3 C-9.54293274 2.49632243 -8.08429904 1.99717444 -6.625 1.5 C-5.81289063 1.2215625 -5.00078125 0.943125 -4.1640625 0.65625 C-2 0 -2 0 0 0 Z " fill="#DB8355" transform="translate(320,70)"/>
<path d="M0 0 C0.33 1.32 0.66 2.64 1 4 C0.01 4.33 -0.98 4.66 -2 5 C-2.33 5.99 -2.66 6.98 -3 8 C-3.33 7.34 -3.66 6.68 -4 6 C-4.99 6 -5.98 6 -7 6 C-7 4.35 -7 2.7 -7 1 C-2.25 0 -2.25 0 0 0 Z " fill="#5E2610" transform="translate(302,35)"/>
<path d="M0 0 C-3 2 -3 2 -5.0625 2.375 C-7.20668205 2.83323057 -7.20668205 2.83323057 -8.25 5.0625 C-8.4975 5.701875 -8.745 6.34125 -9 7 C-8.34 7.33 -7.68 7.66 -7 8 C-8.32 8.33 -9.64 8.66 -11 9 C-10.67 7.68 -10.34 6.36 -10 5 C-10.66 5 -11.32 5 -12 5 C-12 4.34 -12 3.68 -12 3 C-10.75823305 2.29773859 -9.50614401 1.61370891 -8.25 0.9375 C-7.20585938 0.36322266 -7.20585938 0.36322266 -6.140625 -0.22265625 C-3.63859372 -1.1312406 -2.4667645 -0.88336837 0 0 Z " fill="#723922" transform="translate(61,33)"/>
<path d="M0 0 C1.67542976 0.28604898 3.34385343 0.61781233 5 1 C4.67 2.65 4.34 4.3 4 6 C3.01 6.33 2.02 6.66 1 7 C0.34 6.67 -0.32 6.34 -1 6 C-1.042721 4.33388095 -1.04063832 2.66617115 -1 1 C-0.67 0.67 -0.34 0.34 0 0 Z " fill="#6A3824" transform="translate(53,21)"/>
<path d="M0 0 C0.66 0.33 1.32 0.66 2 1 C1.34 4.3 0.68 7.6 0 11 C0.66 11 1.32 11 2 11 C2 12.65 2 14.3 2 16 C0.0234375 14.8125 0.0234375 14.8125 -2 13 C-2.4609375 10.625 -2.4609375 10.625 -2.375 8 C-2.36210937 7.13375 -2.34921875 6.2675 -2.3359375 5.375 C-2 3 -2 3 0 0 Z " fill="#6D3017" transform="translate(255,51)"/>
<path d="M0 0 C4.23169259 0.37615045 6.8083482 1.17661571 10 4 C8.35 4 6.7 4 5 4 C5 3.34 5 2.68 5 2 C3.68 2 2.36 2 1 2 C0.67 5.3 0.34 8.6 0 12 C0.66 12.33 1.32 12.66 2 13 C0.68 13.33 -0.64 13.66 -2 14 C-1.85970581 11.8537974 -1.71261836 9.70803782 -1.5625 7.5625 C-1.48128906 6.36753906 -1.40007812 5.17257813 -1.31640625 3.94140625 C-1 1 -1 1 0 0 Z " fill="#D3623F" transform="translate(84,41)"/>
<path d="M0 0 C-0.33 0.99 -0.66 1.98 -1 3 C-2.65 3.33 -4.3 3.66 -6 4 C-6 4.66 -6 5.32 -6 6 C-7.32 5.34 -8.64 4.68 -10 4 C-9.67 4.99 -9.34 5.98 -9 7 C-9.99 6.67 -10.98 6.34 -12 6 C-11 3 -11 3 -9.2578125 2.05078125 C-8.55398437 1.80714844 -7.85015625 1.56351563 -7.125 1.3125 C-6.42632812 1.06113281 -5.72765625 0.80976562 -5.0078125 0.55078125 C-3 0 -3 0 0 0 Z " fill="#C16443" transform="translate(51,42)"/>
<path d="M0 0 C4.47959418 1.14185734 8.14522751 2.43015167 12 5 C8.30581799 6.231394 5.7943739 5.64432764 2 5 C1.34 3.35 0.68 1.7 0 0 Z " fill="#73290B" transform="translate(54,68)"/>
<path d="M0 0 C0.33 0 0.66 0 1 0 C1 5.94 1 11.88 1 18 C0.01 17.34 -0.98 16.68 -2 16 C-2.25 12.9375 -2.25 12.9375 -2 10 C-1.67 9.67 -1.34 9.34 -1 9 C-1 7.68 -1 6.36 -1 5 C-1 1 -1 1 0 0 Z " fill="#642F1A" transform="translate(31,53)"/>
<path d="M0 0 C2.475 0.495 2.475 0.495 5 1 C5 1.66 5 2.32 5 3 C5.66 3.33 6.32 3.66 7 4 C5.35 3.67 3.7 3.34 2 3 C2.66 5.31 3.32 7.62 4 10 C2.68 9.67 1.36 9.34 0 9 C0 6.03 0 3.06 0 0 Z " fill="#C35C39" transform="translate(47,56)"/>
<path d="M0 0 C1.32 0 2.64 0 4 0 C5 3.875 5 3.875 5 5 C1.09340991 7.08351471 -0.75828706 7.13112345 -5 6 C-4.030625 5.54625 -3.06125 5.0925 -2.0625 4.625 C1.07079582 3.34213779 1.07079582 3.34213779 2 1 C1.34 0.67 0.68 0.34 0 0 Z " fill="#72290F" transform="translate(97,45)"/>
<path d="M0 0 C4.69023454 0.56606279 9.34500026 1.18537505 14 2 C13.01 2.495 13.01 2.495 12 3 C12 3.66 12 4.32 12 5 C7.43545749 4.45660208 4.0271824 3.20536179 0 1 C0 0.67 0 0.34 0 0 Z " fill="#5B2007" transform="translate(59,73)"/>
<path d="M0 0 C1.32 0 2.64 0 4 0 C4 3.3 4 6.6 4 10 C3.01 10.495 3.01 10.495 2 11 C2 8.69 2 6.38 2 4 C1.34 4 0.68 4 0 4 C-0.33 3.01 -0.66 2.02 -1 1 C-0.67 0.67 -0.34 0.34 0 0 Z " fill="#86442A" transform="translate(283,53)"/>
<path d="M0 0 C-0.99 0.495 -0.99 0.495 -2 1 C-2.65213292 3.02463255 -2.65213292 3.02463255 -3 5 C-4.32 5 -5.64 5 -7 5 C-7.33 3.02 -7.66 1.04 -8 -1 C-3.375 -2.25 -3.375 -2.25 0 0 Z " fill="#572712" transform="translate(49,17)"/>
<path d="M0 0 C0.66 0 1.32 0 2 0 C1.67 1.32 1.34 2.64 1 4 C-0.55966592 4.36644578 -2.12292651 4.71760862 -3.6875 5.0625 C-4.55761719 5.25972656 -5.42773438 5.45695312 -6.32421875 5.66015625 C-9.16001276 6.02032279 -11.24789982 5.70909969 -14 5 C-12 3 -12 3 -9.3984375 2.8046875 C-8.40070313 2.82789062 -7.40296875 2.85109375 -6.375 2.875 C-4.87066406 2.90207031 -4.87066406 2.90207031 -3.3359375 2.9296875 C-2.56507813 2.95289062 -1.79421875 2.97609375 -1 3 C-0.67 2.01 -0.34 1.02 0 0 Z " fill="#6B2C0C" transform="translate(227,65)"/>
<path d="M0 0 C1.98 0 3.96 0 6 0 C6 1.32 6 2.64 6 4 C4.35 4.33 2.7 4.66 1 5 C0.67 3.35 0.34 1.7 0 0 Z " fill="#BF6C46" transform="translate(293,53)"/>
<path d="M0 0 C0.66 0 1.32 0 2 0 C2 2.97 2 5.94 2 9 C1.34 9 0.68 9 0 9 C-0.33 7.68 -0.66 6.36 -1 5 C-1.99 5.495 -1.99 5.495 -3 6 C-3.33 5.01 -3.66 4.02 -4 3 C-3.01 2.67 -2.02 2.34 -1 2 C-0.67 1.34 -0.34 0.68 0 0 Z " fill="#CB5F3A" transform="translate(90,56)"/>
<path d="M0 0 C1.65 0 3.3 0 5 0 C5.33 1.32 5.66 2.64 6 4 C5.01 4 4.02 4 3 4 C3 4.99 3 5.98 3 7 C2.01 6.67 1.02 6.34 0 6 C0.66 6 1.32 6 2 6 C1.34 4.02 0.68 2.04 0 0 Z " fill="#5D240D" transform="translate(222,47)"/>
<path d="M0 0 C1.45823212 -0.0270043 2.91660675 -0.04639787 4.375 -0.0625 C5.18710938 -0.07410156 5.99921875 -0.08570313 6.8359375 -0.09765625 C9 0 9 0 11 1 C11 2.32 11 3.64 11 5 C9.53932801 4.54917531 8.08151968 4.08906463 6.625 3.625 C5.81289062 3.36976562 5.00078125 3.11453125 4.1640625 2.8515625 C2 2 2 2 0 0 Z " fill="#78290F" transform="translate(76,36)"/>
<path d="M0 0 C2.97 0 5.94 0 9 0 C9 0.99 9 1.98 9 3 C6.03 2.67 3.06 2.34 0 2 C0 1.34 0 0.68 0 0 Z " fill="#D57649" transform="translate(131,58)"/>
<path d="M0 0 C1.2065625 0.0309375 1.2065625 0.0309375 2.4375 0.0625 C2.7675 1.0525 3.0975 2.0425 3.4375 3.0625 C1.4575 3.7225 -0.5225 4.3825 -2.5625 5.0625 C-3.125 3.125 -3.125 3.125 -3.5625 1.0625 C-2.5625 0.0625 -2.5625 0.0625 0 0 Z " fill="#D26C3D" transform="translate(243.5625,53.9375)"/>
<path d="M0 0 C3.63 1.32 7.26 2.64 11 4 C10.67 4.66 10.34 5.32 10 6 C2.25 4.125 2.25 4.125 0 3 C0 2.01 0 1.02 0 0 Z " fill="#78462D" transform="translate(81,32)"/>
<path d="M0 0 C0.66 0.33 1.32 0.66 2 1 C1.01 1.66 0.02 2.32 -1 3 C0.32 3.66 1.64 4.32 3 5 C1.02 5.66 -0.96 6.32 -3 7 C-3.66 5.35 -4.32 3.7 -5 2 C-2.625 0.9375 -2.625 0.9375 0 0 Z " fill="#823316" transform="translate(81,55)"/>
<path d="M0 0 C1.98 0 3.96 0 6 0 C6 1.32 6 2.64 6 4 C4.02 4 2.04 4 0 4 C0 2.68 0 1.36 0 0 Z " fill="#C5724A" transform="translate(312,53)"/>
<path d="M0 0 C0.99 0.33 1.98 0.66 3 1 C2.34 2.65 1.68 4.3 1 6 C0.34 6 -0.32 6 -1 6 C-1.33 6.99 -1.66 7.98 -2 9 C-1.979375 8.21625 -1.95875 7.4325 -1.9375 6.625 C-1.81315937 4.01885039 -1.81315937 4.01885039 -3 2 C-2.01 1.34 -1.02 0.68 0 0 Z " fill="#BA6342" transform="translate(61,36)"/>
<path d="M0 0 C1.32 0.33 2.64 0.66 4 1 C3.67 1.99 3.34 2.98 3 4 C2.34 4 1.68 4 1 4 C0.34 5.32 -0.32 6.64 -1 8 C-1.93065133 5.39417629 -2.14917407 4.35801776 -1.0625 1.75 C-0.711875 1.1725 -0.36125 0.595 0 0 Z " fill="#5E250F" transform="translate(150,49)"/>
<path d="M0 0 C0 0.66 0 1.32 0 2 C0.66 2.66 1.32 3.32 2 4 C-2.455 4.495 -2.455 4.495 -7 5 C-2.25 0 -2.25 0 0 0 Z " fill="#682205" transform="translate(86,54)"/>
<path d="M0 0 C2.31 0.33 4.62 0.66 7 1 C7 1.99 7 2.98 7 4 C6.01 4.33 5.02 4.66 4 5 C2.64567325 3.68799596 1.31266518 2.35368596 0 1 C0 0.67 0 0.34 0 0 Z " fill="#511C0B" transform="translate(306,40)"/>
<path d="M0 0 C3.55780196 0.60990891 6.6828589 1.5783681 10 3 C10 3.66 10 4.32 10 5 C6.44219804 4.39009109 3.3171411 3.4216319 0 2 C0 1.34 0 0.68 0 0 Z " fill="#6D3824" transform="translate(90,37)"/>
<path d="M0 0 C0.66 0 1.32 0 2 0 C2.33 1.32 2.66 2.64 3 4 C0.29120665 5.35439668 -2.00933268 5.06501451 -5 5 C-3.74458443 2.48916886 -2.49936512 2.12874554 0 1 C0 0.67 0 0.34 0 0 Z " fill="#72301E" transform="translate(222,60)"/>
<path d="M0 0 C0.99 0 1.98 0 3 0 C2.67 1.32 2.34 2.64 2 4 C1.34 3.67 0.68 3.34 0 3 C-0.66 4.32 -1.32 5.64 -2 7 C-2.33 6.34 -2.66 5.68 -3 5 C-2.67 4.01 -2.34 3.02 -2 2 C-1.34 2 -0.68 2 0 2 C0 1.34 0 0.68 0 0 Z " fill="#662811" transform="translate(249,47)"/>
<path d="M0 0 C1.32 0 2.64 0 4 0 C4 1.65 4 3.3 4 5 C2.68 4.67 1.36 4.34 0 4 C0 2.68 0 1.36 0 0 Z " fill="#BE6745" transform="translate(301,53)"/>
<path d="M0 0 C1.98 0.99 3.96 1.98 6 3 C5.67 3.66 5.34 4.32 5 5 C3.68 5 2.36 5 1 5 C0.34 3.68 -0.32 2.36 -1 1 C-0.67 0.67 -0.34 0.34 0 0 Z " fill="#77462A" transform="translate(29,75)"/>
<path d="M0 0 C2.7839183 1.39195915 2.97898997 3.15575779 4 6 C2.68 6 1.36 6 0 6 C-0.38218767 4.34385343 -0.71395102 2.67542976 -1 1 C-0.67 0.67 -0.34 0.34 0 0 Z " fill="#BA6A43" transform="translate(305,64)"/>
</svg>
